<svg width="241" height="44" viewBox="0 0 241 44" fill="none" xmlns="http://www.w3.org/2000/svg">
<path d="M10 43H0V1H10V43Z" fill="#090909"/>
<path d="M25.8125 9.1875L26.0938 13.0938C28.5104 10.0729 31.75 8.5625 35.8125 8.5625C39.3958 8.5625 42.0625 9.61458 43.8125 11.7188C45.5625 13.8229 46.4583 16.9688 46.5 21.1562V43H37.4688V21.375C37.4688 19.4583 37.0521 18.0729 36.2188 17.2188C35.3854 16.3438 34 15.9062 32.0625 15.9062C29.5208 15.9062 27.6146 16.9896 26.3438 19.1562V43H17.3125V9.1875H25.8125Z" fill="#090909"/>
<path d="M71.6875 33.6562C71.6875 32.5521 71.1354 31.6875 70.0312 31.0625C68.9479 30.4167 67.1979 29.8438 64.7812 29.3438C56.7396 27.6562 52.7188 24.2396 52.7188 19.0938C52.7188 16.0938 53.9583 13.5938 56.4375 11.5938C58.9375 9.57292 62.1979 8.5625 66.2188 8.5625C70.5104 8.5625 73.9375 9.57292 76.5 11.5938C79.0833 13.6146 80.375 16.2396 80.375 19.4688H71.3438C71.3438 18.1771 70.9271 17.1146 70.0938 16.2812C69.2604 15.4271 67.9583 15 66.1875 15C64.6667 15 63.4896 15.3438 62.6562 16.0312C61.8229 16.7188 61.4062 17.5938 61.4062 18.6562C61.4062 19.6562 61.875 20.4688 62.8125 21.0938C63.7708 21.6979 65.375 22.2292 67.625 22.6875C69.875 23.125 71.7708 23.625 73.3125 24.1875C78.0833 25.9375 80.4688 28.9688 80.4688 33.2812C80.4688 36.3646 79.1458 38.8646 76.5 40.7812C73.8542 42.6771 70.4375 43.625 66.25 43.625C63.4167 43.625 60.8958 43.125 58.6875 42.125C56.5 41.1042 54.7812 39.7188 53.5312 37.9688C52.2812 36.1979 51.6562 34.2917 51.6562 32.25H60.2188C60.3021 33.8542 60.8958 35.0833 62 35.9375C63.1042 36.7917 64.5833 37.2188 66.4375 37.2188C68.1667 37.2188 69.4688 36.8958 70.3438 36.25C71.2396 35.5833 71.6875 34.7188 71.6875 33.6562Z" fill="#090909"/>
<path d="M97.125 0.875V9.1875H102.906V15.8125H97.125V32.6875C97.125 33.9375 97.3646 34.8333 97.8438 35.375C98.3229 35.9167 99.2396 36.1875 100.594 36.1875C101.594 36.1875 102.479 36.1146 103.25 35.9688V42.8125C101.479 43.3542 99.6562 43.625 97.7812 43.625C91.4479 43.625 88.2188 40.4271 88.0938 34.0312V15.8125H83.1562V9.1875H88.0938V0.875H97.125Z" fill="#090909"/>
<path d="M127.531 43C127.115 42.1875 126.812 41.1771 126.625 39.9688C124.438 42.4062 121.594 43.625 118.094 43.625C114.781 43.625 112.031 42.6667 109.844 40.75C107.677 38.8333 106.594 36.4167 106.594 33.5C106.594 29.9167 107.917 27.1667 110.562 25.25C113.229 23.3333 117.073 22.3646 122.094 22.3438H126.25V20.4062C126.25 18.8438 125.844 17.5938 125.031 16.6562C124.24 15.7188 122.979 15.25 121.25 15.25C119.729 15.25 118.531 15.6146 117.656 16.3438C116.802 17.0729 116.375 18.0729 116.375 19.3438H107.344C107.344 17.3854 107.948 15.5729 109.156 13.9062C110.365 12.2396 112.073 10.9375 114.281 10C116.49 9.04167 118.969 8.5625 121.719 8.5625C125.885 8.5625 129.188 9.61458 131.625 11.7188C134.083 13.8021 135.312 16.7396 135.312 20.5312V35.1875C135.333 38.3958 135.781 40.8229 136.656 42.4688V43H127.531ZM120.062 36.7188C121.396 36.7188 122.625 36.4271 123.75 35.8438C124.875 35.2396 125.708 34.4375 126.25 33.4375V27.625H122.875C118.354 27.625 115.948 29.1875 115.656 32.3125L115.625 32.8438C115.625 33.9688 116.021 34.8958 116.812 35.625C117.604 36.3542 118.688 36.7188 120.062 36.7188Z" fill="#090909"/>
<path d="M150.562 9.1875L150.844 13.0938C153.26 10.0729 156.5 8.5625 160.562 8.5625C164.146 8.5625 166.812 9.61458 168.562 11.7188C170.312 13.8229 171.208 16.9688 171.25 21.1562V43H162.219V21.375C162.219 19.4583 161.802 18.0729 160.969 17.2188C160.135 16.3438 158.75 15.9062 156.812 15.9062C154.271 15.9062 152.365 16.9896 151.094 19.1562V43H142.062V9.1875H150.562Z" fill="#090909"/>
<path d="M192.188 36.3438C193.854 36.3438 195.208 35.8854 196.25 34.9688C197.292 34.0521 197.833 32.8333 197.875 31.3125H206.344C206.323 33.6042 205.698 35.7083 204.469 37.625C203.24 39.5208 201.552 41 199.406 42.0625C197.281 43.1042 194.927 43.625 192.344 43.625C187.51 43.625 183.698 42.0938 180.906 39.0312C178.115 35.9479 176.719 31.6979 176.719 26.2812V25.6875C176.719 20.4792 178.104 16.3229 180.875 13.2188C183.646 10.1146 187.448 8.5625 192.281 8.5625C196.51 8.5625 199.896 9.77083 202.438 12.1875C205 14.5833 206.302 17.7812 206.344 21.7812H197.875C197.833 20.0312 197.292 18.6146 196.25 17.5312C195.208 16.4271 193.833 15.875 192.125 15.875C190.021 15.875 188.427 16.6458 187.344 18.1875C186.281 19.7083 185.75 22.1875 185.75 25.625V26.5625C185.75 30.0417 186.281 32.5417 187.344 34.0625C188.406 35.5833 190.021 36.3438 192.188 36.3438Z" fill="#090909"/>
<path d="M227.062 43.625C222.104 43.625 218.062 42.1042 214.938 39.0625C211.833 36.0208 210.281 31.9688 210.281 26.9062V26.0312C210.281 22.6354 210.938 19.6042 212.25 16.9375C213.562 14.25 215.417 12.1875 217.812 10.75C220.229 9.29167 222.979 8.5625 226.062 8.5625C230.688 8.5625 234.323 10.0208 236.969 12.9375C239.635 15.8542 240.969 19.9896 240.969 25.3438V29.0312H219.438C219.729 31.2396 220.604 33.0104 222.062 34.3438C223.542 35.6771 225.406 36.3438 227.656 36.3438C231.135 36.3438 233.854 35.0833 235.812 32.5625L240.25 37.5312C238.896 39.4479 237.062 40.9479 234.75 42.0312C232.438 43.0938 229.875 43.625 227.062 43.625ZM226.031 15.875C224.24 15.875 222.781 16.4792 221.656 17.6875C220.552 18.8958 219.844 20.625 219.531 22.875H232.094V22.1562C232.052 20.1562 231.51 18.6146 230.469 17.5312C229.427 16.4271 227.948 15.875 226.031 15.875Z" fill="#090909"/>
<path d="M0 1H10V9H0V1Z" fill="#4285F4"/>
<path d="M0 9H10V17H0V9Z" fill="#DB4437"/>
<path d="M0 17H10V25H0V17Z" fill="#F4B400"/>
<path d="M0 25H10V33H0V25Z" fill="#0F9D58"/>
</svg>
